<svg width="31" height="22" viewBox="0 0 31 22" fill="none" xmlns="http://www.w3.org/2000/svg">
<g id="Icon">
<path id="Vector" d="M17.0183 12.0322L12.3791 19.9777L7.73986 12.0322H17.0183ZM18.2612 11.322H6.492L12.3791 21.3831L18.2612 11.322Z" fill="white"/>
<path id="Vector_2" d="M25.0843 2.14975L29.7235 10.0953H20.445L25.0843 2.14975ZM25.0843 0.729492L19.1971 10.7905H30.9713L25.0843 0.729492Z" fill="white"/>
<path id="Vector_3" d="M0.85144 0.729492L5.78757 9.62848L11.1815 0.952948L0.85144 0.729492Z" fill="#4CAF4F"/>
<path id="Vector_4" d="M12.3793 1.50903L17.5569 10.3584H7.19156L12.3793 1.50903Z" fill="#4CAF4F"/>
<path id="Vector_5" d="M18.8902 12.2904L24.0729 21.3831H13.461L18.7292 12.2904H18.8902Z" fill="#4CAF4F"/>
<path id="Vector_6" d="M20.0123 11.7391L25.0842 20.6927L30.2266 11.7391H20.0123Z" fill="#4CAF4F"/>
</g>
</svg>
